<svg width="1885" height="161" viewBox="0 0 1885 161" fill="none" xmlns="http://www.w3.org/2000/svg">
<path d="M1689.22 108.713C1689.23 108.68 1689.24 108.648 1689.26 108.625C1689.29 108.602 1689.32 108.589 1689.35 108.589H1735.79C1735.87 108.589 1735.95 108.605 1736.02 108.635C1736.09 108.665 1736.16 108.71 1736.21 108.766C1736.27 108.822 1736.31 108.889 1736.34 108.962C1736.37 109.035 1736.39 109.113 1736.38 109.192C1736.26 116.08 1737.55 122.409 1745.35 124.094C1749.68 125.032 1752.8 125.493 1757.15 125.604C1766.01 125.828 1780.2 126.164 1792.43 125.822C1805 125.466 1814.31 125.188 1820.34 124.989C1826.08 124.802 1833.72 123.578 1835.83 117.031C1836.58 114.694 1836.86 112.522 1836.68 110.516C1836.13 104.606 1832.96 100.772 1827.18 99.015C1822.67 97.6473 1817.41 97.5727 1811.85 97.6038C1809.26 97.6204 1806.25 97.5934 1802.84 97.523C1759.89 96.6567 1733.51 96.0475 1723.71 95.6952C1716.63 95.4403 1708.74 93.7245 1702.56 89.7084C1689.15 80.9862 1687.57 60.4209 1688.07 45.5937C1688.41 35.4416 1690.26 24.2326 1696.27 16.1321C1701.19 9.51115 1709.93 5.99863 1718.05 4.3636C1726.86 2.58973 1736.37 1.46448 1746.57 0.987858C1773.53 -0.261727 1794.74 -0.137389 1825.92 0.33509C1833.52 0.451138 1840.96 1.17436 1848.25 2.50477C1856.92 4.09006 1865.11 6.99333 1870.04 14.5219C1873.45 19.7316 1876.47 26.5826 1877.33 32.9984C1877.97 37.7853 1878.29 43.5546 1878.31 48.9446C1878.31 49.0946 1878.25 49.2385 1878.14 49.3446C1878.04 49.4507 1877.89 49.5103 1877.74 49.5103H1831.91C1831.78 49.5103 1831.66 49.4581 1831.56 49.365C1831.47 49.2719 1831.41 49.1454 1831.41 49.0129C1831.37 45.4383 1830.56 41.6895 1828.08 39.0722C1825.19 36.026 1819.33 34.7577 1815.35 34.6148C1794.62 33.8874 1770.89 34.9318 1752 35.6219C1748.27 35.7587 1744.85 36.5793 1741.73 38.0837C1736.93 40.4026 1735.91 44.5803 1736.37 49.6533C1736.83 54.5646 1739.29 57.7663 1743.77 59.2583C1747.75 60.5846 1752.04 61.2829 1756.65 61.3534C1771.77 61.5813 1791.98 61.7782 1817.31 61.944C1834.18 62.0559 1851.91 61.6767 1867.19 69.2985C1881.31 76.3422 1884.66 92.8044 1884.97 107.128C1885.21 118.61 1884.23 130.771 1878.83 140.749C1874.56 148.632 1866.73 153.263 1858.07 155.532C1851.43 157.277 1844.53 158.247 1837.39 158.442C1819.36 158.943 1801.55 159.461 1783.97 159.996C1774.76 160.274 1766.05 160.299 1757.82 160.071C1746.73 159.766 1735.49 159.853 1724.36 158.777C1717.64 158.127 1711.23 156.428 1705.11 153.68C1688.52 146.219 1688.67 123.789 1689.22 108.713Z" fill="#242424"/>
<path d="M367.727 159.601H210.847C210.734 159.601 210.626 159.556 210.546 159.476C210.466 159.397 210.421 159.289 210.421 159.176V1.67171C210.421 1.55896 210.466 1.45083 210.546 1.3711C210.626 1.29137 210.734 1.24658 210.847 1.24658H258.323C258.436 1.24658 258.544 1.29137 258.624 1.3711C258.704 1.45083 258.749 1.55896 258.749 1.67171V119.439C258.749 119.552 258.794 119.66 258.873 119.739C258.953 119.819 259.061 119.864 259.174 119.864H367.727C367.782 119.864 367.838 119.875 367.889 119.896C367.941 119.918 367.988 119.949 368.028 119.988C368.067 120.028 368.098 120.075 368.12 120.126C368.141 120.178 368.152 120.233 368.152 120.289V159.176C368.152 159.232 368.141 159.287 368.12 159.339C368.098 159.39 368.067 159.437 368.028 159.476C367.988 159.516 367.941 159.547 367.889 159.569C367.838 159.59 367.782 159.601 367.727 159.601Z" fill="#242424"/>
<path d="M442.135 1.24658H395.012C394.768 1.24658 394.571 1.44531 394.571 1.69045V159.157C394.571 159.402 394.768 159.601 395.012 159.601H442.135C442.378 159.601 442.576 159.402 442.576 159.157V1.69045C442.576 1.44531 442.378 1.24658 442.135 1.24658Z" fill="#242424"/>
<path d="M563.755 159.551C549.635 159.559 541.801 159.576 540.254 159.601C540.184 159.603 540.114 159.59 540.049 159.564C539.984 159.538 539.924 159.499 539.874 159.45C539.824 159.4 539.784 159.341 539.757 159.276C539.73 159.211 539.716 159.141 539.716 159.07L539.585 41.4132C539.585 41.3054 539.542 41.2021 539.465 41.1259C539.389 41.0498 539.286 41.007 539.178 41.007L469.432 41.0882C469.303 41.0882 469.179 41.0369 469.087 40.9455C468.996 40.8541 468.944 40.7301 468.944 40.6008L468.901 1.84021C468.9 1.7512 468.933 1.66507 468.993 1.59823C469.053 1.53139 469.136 1.48852 469.226 1.47778C469.96 1.39447 470.963 1.35073 472.235 1.34656C497.839 1.32573 528.317 1.30699 563.667 1.29032C599.013 1.26949 629.489 1.25491 655.093 1.24658C656.365 1.24658 657.368 1.28824 658.102 1.37156C658.192 1.38229 658.275 1.42515 658.335 1.49199C658.395 1.55883 658.428 1.64497 658.427 1.73398V40.4946C658.427 40.6239 658.376 40.7478 658.284 40.8392C658.193 40.9306 658.069 40.982 657.939 40.982H588.194C588.14 40.982 588.087 40.9925 588.038 41.0129C587.989 41.0333 587.944 41.0632 587.906 41.101C587.868 41.1387 587.839 41.1834 587.818 41.2327C587.798 41.282 587.787 41.3348 587.787 41.3882V159.045C587.787 159.115 587.773 159.185 587.747 159.249C587.72 159.314 587.68 159.373 587.631 159.423C587.582 159.472 587.523 159.511 587.458 159.537C587.394 159.564 587.325 159.577 587.255 159.576C585.708 159.551 577.875 159.543 563.755 159.551Z" fill="#242424"/>
<path d="M1384.68 1.43407L1470.39 159.076C1470.42 159.13 1470.44 159.191 1470.44 159.253C1470.44 159.314 1470.42 159.374 1470.39 159.427C1470.36 159.48 1470.31 159.524 1470.26 159.554C1470.2 159.585 1470.14 159.601 1470.08 159.601H1417.7C1417.64 159.601 1417.57 159.583 1417.51 159.549C1417.46 159.515 1417.41 159.466 1417.38 159.407L1402.74 130.935C1402.71 130.876 1402.66 130.827 1402.61 130.793C1402.55 130.759 1402.48 130.741 1402.42 130.741H1300.96C1300.9 130.741 1300.83 130.757 1300.78 130.789C1300.73 130.821 1300.68 130.867 1300.65 130.922L1284.8 159.42C1284.77 159.475 1284.72 159.521 1284.67 159.553C1284.61 159.585 1284.55 159.601 1284.49 159.601H1232.02C1231.95 159.601 1231.89 159.585 1231.84 159.555C1231.78 159.524 1231.74 159.479 1231.71 159.425C1231.68 159.372 1231.66 159.31 1231.66 159.248C1231.66 159.186 1231.67 159.124 1231.7 159.07L1319.4 1.42782C1319.43 1.3725 1319.47 1.32653 1319.53 1.29466C1319.58 1.2628 1319.65 1.2462 1319.71 1.24659H1384.36C1384.43 1.24681 1384.49 1.26435 1384.55 1.29735C1384.6 1.33035 1384.65 1.37758 1384.68 1.43407ZM1317.66 97.6316C1317.63 97.6696 1317.62 97.7122 1317.63 97.7554C1317.63 97.7986 1317.64 97.8408 1317.66 97.8779C1317.68 97.915 1317.71 97.9458 1317.75 97.9673C1317.79 97.9887 1317.83 98.0001 1317.87 98.0003L1384.63 98.1128C1384.67 98.1126 1384.72 98.1012 1384.75 98.0797C1384.79 98.0583 1384.82 98.0275 1384.85 97.9904C1384.87 97.9532 1384.88 97.911 1384.88 97.8679C1384.88 97.8247 1384.87 97.7821 1384.85 97.7441L1351.58 35.9372C1351.56 35.8966 1351.53 35.8625 1351.49 35.8387C1351.45 35.815 1351.4 35.8024 1351.36 35.8024C1351.31 35.8024 1351.27 35.815 1351.23 35.8387C1351.19 35.8625 1351.16 35.8966 1351.14 35.9372L1317.66 97.6316Z" fill="#242424"/>
<path d="M176.337 1.24658H0.425451C0.194002 1.24658 0.00634766 1.43421 0.00634766 1.66566V36.8055C0.00634766 37.0369 0.194002 37.2245 0.425451 37.2245H176.337C176.569 37.2245 176.756 37.0369 176.756 36.8055V1.66566C176.756 1.43421 176.569 1.24658 176.337 1.24658Z" fill="#242424"/>
<path d="M48.2813 96.2834L48.2938 123.486C48.2938 123.58 48.332 123.671 48.4 123.738C48.4681 123.805 48.5604 123.842 48.6566 123.842H176.368C176.46 123.842 176.547 123.879 176.612 123.945C176.676 124.011 176.712 124.1 176.712 124.193L176.719 159.189C176.719 159.298 176.676 159.403 176.6 159.48C176.523 159.558 176.42 159.601 176.312 159.601L0.469115 159.595C0.348015 159.595 0.231847 159.547 0.146217 159.461C0.0605865 159.376 0.0125219 159.26 0.0125219 159.138L0 64.884C0 64.7911 0.0375895 64.702 0.104451 64.6363C0.171313 64.5706 0.262013 64.5337 0.35657 64.5337H176.375C176.466 64.5337 176.553 64.5699 176.618 64.6344C176.682 64.699 176.719 64.7865 176.719 64.8777L176.731 95.2951C176.731 95.4311 176.677 95.5616 176.581 95.6578C176.485 95.754 176.354 95.808 176.218 95.808H48.7566C48.6305 95.808 48.5097 95.8581 48.4205 95.9472C48.3314 96.0364 48.2813 96.1573 48.2813 96.2834Z" fill="#242424"/>
<path d="M861.501 1.24658H685.589C685.357 1.24658 685.17 1.43421 685.17 1.66566V36.8055C685.17 37.0369 685.357 37.2245 685.589 37.2245H861.501C861.732 37.2245 861.92 37.0369 861.92 36.8055V1.66566C861.92 1.43421 861.732 1.24658 861.501 1.24658Z" fill="#242424"/>
<path d="M733.445 96.2834L733.457 123.486C733.457 123.58 733.496 123.671 733.564 123.738C733.632 123.805 733.724 123.842 733.82 123.842H861.532C861.623 123.842 861.711 123.879 861.775 123.945C861.84 124.011 861.876 124.1 861.876 124.193L861.882 159.189C861.882 159.298 861.839 159.403 861.763 159.48C861.687 159.558 861.583 159.601 861.476 159.601L685.633 159.595C685.512 159.595 685.395 159.547 685.31 159.461C685.224 159.376 685.176 159.26 685.176 159.138L685.164 64.884C685.164 64.7911 685.201 64.702 685.268 64.6363C685.335 64.5706 685.426 64.5337 685.52 64.5337H861.538C861.629 64.5337 861.717 64.5699 861.781 64.6344C861.846 64.699 861.882 64.7865 861.882 64.8777L861.895 95.2951C861.895 95.4311 861.841 95.5616 861.744 95.6578C861.648 95.754 861.518 95.808 861.382 95.808H733.92C733.794 95.808 733.673 95.8581 733.584 95.9472C733.495 96.0364 733.445 96.1573 733.445 96.2834Z" fill="#242424"/>
<path d="M1200.03 1.24658H1024.12C1023.89 1.24658 1023.7 1.43421 1023.7 1.66566V36.8055C1023.7 37.0369 1023.89 37.2245 1024.12 37.2245H1200.03C1200.26 37.2245 1200.45 37.0369 1200.45 36.8055V1.66566C1200.45 1.43421 1200.26 1.24658 1200.03 1.24658Z" fill="#242424"/>
<path d="M1071.97 96.2834L1071.99 123.486C1071.99 123.58 1072.02 123.671 1072.09 123.738C1072.16 123.805 1072.25 123.842 1072.35 123.842H1200.06C1200.15 123.842 1200.24 123.879 1200.3 123.945C1200.37 124.011 1200.41 124.1 1200.41 124.193L1200.41 159.189C1200.41 159.298 1200.37 159.403 1200.29 159.48C1200.22 159.558 1200.11 159.601 1200 159.601L1024.16 159.595C1024.04 159.595 1023.92 159.547 1023.84 159.461C1023.75 159.376 1023.71 159.26 1023.71 159.138L1023.69 64.884C1023.69 64.7911 1023.73 64.702 1023.8 64.6363C1023.86 64.5706 1023.95 64.5337 1024.05 64.5337H1200.07C1200.16 64.5337 1200.25 64.5699 1200.31 64.6344C1200.38 64.699 1200.41 64.7865 1200.41 64.8777L1200.42 95.2951C1200.42 95.4311 1200.37 95.5616 1200.27 95.6578C1200.18 95.754 1200.05 95.808 1199.91 95.808H1072.45C1072.32 95.808 1072.2 95.8581 1072.11 95.9472C1072.02 96.0364 1071.97 96.1573 1071.97 96.2834Z" fill="#242424"/>
<path d="M1570.54 159.551C1556.42 159.559 1548.59 159.576 1547.04 159.601C1546.97 159.603 1546.9 159.59 1546.84 159.564C1546.77 159.538 1546.71 159.499 1546.66 159.45C1546.61 159.4 1546.57 159.341 1546.55 159.276C1546.52 159.211 1546.5 159.141 1546.5 159.07L1546.37 41.4132C1546.37 41.3054 1546.33 41.2021 1546.25 41.1259C1546.18 41.0498 1546.07 41.007 1545.97 41.007L1476.22 41.0882C1476.09 41.0882 1475.97 41.0369 1475.88 40.9455C1475.78 40.8541 1475.73 40.7301 1475.73 40.6008L1475.69 1.84021C1475.69 1.7512 1475.72 1.66507 1475.78 1.59823C1475.84 1.53139 1475.92 1.48852 1476.01 1.47778C1476.75 1.39447 1477.75 1.35073 1479.02 1.34656C1504.63 1.32573 1535.11 1.30699 1570.46 1.29032C1605.8 1.26949 1636.28 1.25491 1661.88 1.24658C1663.15 1.24658 1664.16 1.28824 1664.89 1.37156C1664.98 1.38229 1665.06 1.42515 1665.12 1.49199C1665.18 1.55883 1665.22 1.64497 1665.22 1.73398V40.4946C1665.22 40.6239 1665.16 40.7478 1665.07 40.8392C1664.98 40.9306 1664.86 40.982 1664.73 40.982H1594.98C1594.93 40.982 1594.88 40.9925 1594.83 41.0129C1594.78 41.0333 1594.73 41.0632 1594.69 41.101C1594.66 41.1387 1594.63 41.1834 1594.61 41.2327C1594.59 41.282 1594.58 41.3348 1594.58 41.3882V159.045C1594.58 159.115 1594.56 159.185 1594.53 159.249C1594.51 159.314 1594.47 159.373 1594.42 159.423C1594.37 159.472 1594.31 159.511 1594.25 159.537C1594.18 159.564 1594.11 159.577 1594.04 159.576C1592.5 159.551 1584.66 159.543 1570.54 159.551Z" fill="#242424"/>
</svg>
