<svg width="512" height="751" viewBox="0 0 512 751" fill="none" xmlns="http://www.w3.org/2000/svg">
<path d="M169.981 0.00576824C170.01 0.00678893 170.038 0.0165178 170.061 0.033662C170.084 0.0508062 170.101 0.0745537 170.11 0.101748C170.119 0.128943 170.12 0.158297 170.112 0.185909C170.104 0.21352 170.088 0.238083 170.066 0.256331C169.372 0.819422 168.753 1.41889 168.209 2.05472C164.202 6.72919 157.861 14.1868 149.185 24.4275C146.02 28.1617 144.135 30.4504 143.529 31.2937C141.796 33.6943 140.318 36.2551 139.093 38.9763C137.265 43.0338 135.828 50.1263 142.435 50.7608C146.476 51.1528 150.016 49.997 154.614 48.627C163.583 45.9516 171.888 43.4312 179.528 41.0657C179.554 41.0577 179.583 41.0572 179.61 41.0642C179.637 41.0713 179.661 41.0855 179.681 41.1055C179.7 41.1254 179.714 41.1503 179.721 41.1775C179.727 41.2046 179.726 41.2331 179.717 41.2597C179.545 41.7635 179.373 42.1676 179.201 42.472C177.866 44.8214 160.967 74.2759 128.505 130.836C124.513 137.791 119.847 144.144 113.933 149.68C95.2315 167.196 67.7221 172.049 44.0918 163.154C13.1553 151.511 -4.89634 119.1 1.16663 86.6276C5.23148 64.8408 19.6341 46.5821 39.7605 37.3072C41.7627 36.3831 44.3569 35.4132 47.5431 34.3975C50.3768 33.4922 54.3367 32.1465 58.1311 31.0674C91.0051 21.7023 126.297 11.6057 164.007 0.777662C165.966 0.21457 167.958 -0.0427277 169.981 0.00576824Z" fill="#242424"/>
<path d="M495.977 219.045C496.024 219.047 496.071 219.06 496.113 219.081C496.155 219.103 496.192 219.133 496.222 219.17C496.251 219.208 496.272 219.251 496.284 219.297C496.295 219.343 496.296 219.391 496.288 219.437C495.889 221.547 490.396 250.015 479.806 304.843C478.612 311.022 476.46 317.827 473.869 323.72C466.987 339.357 456.443 352.074 442.234 361.87C440.256 363.23 436.503 365.434 430.976 368.482C408.893 380.649 359.957 407.51 284.169 449.066C281.42 450.573 278.138 452.723 275.546 454.141C253.622 466.144 228.158 480.112 199.154 496.046C195.921 497.82 191.977 499.671 189.284 501.15C171.19 511.103 153.153 520.994 135.174 530.826C135.14 530.844 135.11 530.869 135.086 530.898C135.062 530.928 135.044 530.963 135.033 530.999C135.022 531.036 135.019 531.075 135.023 531.113C135.027 531.151 135.038 531.188 135.057 531.222C137.476 535.71 139.279 539.042 140.466 541.216C192.113 635.761 221.241 689.076 227.85 701.16C228.391 702.154 228.189 702.558 227.212 703.091C195.366 720.528 168.203 735.364 145.721 747.598C144.481 748.272 143.134 749.055 141.681 749.947C141.624 749.981 141.56 750.002 141.494 750.009C141.428 750.016 141.361 750.008 141.297 749.987C140.756 749.806 140.296 749.373 139.917 748.686C104.777 684.674 70.708 622.634 37.7101 562.566C36.5879 560.521 34.6948 557.09 33.5444 554.516C22.1773 529.1 24.8737 499.821 41.0807 477.137C47.5796 468.041 55.8116 460.624 65.7766 454.885C68.3923 453.379 74.209 450.211 83.2268 445.38C84.8293 444.523 87.8608 442.696 89.9114 441.569C90.1348 441.445 107.956 431.654 143.376 412.197C143.553 412.098 143.688 411.941 143.759 411.753C143.829 411.564 143.829 411.358 143.76 411.17C143.698 411.003 143.488 410.593 143.13 409.941C107.417 344.728 88.7018 310.528 86.9849 307.34C83.0801 300.096 80.451 292.02 79.0974 283.112C76.2193 264.134 80.4415 245.063 90.8156 228.979C97.6482 218.385 106.612 209.986 117.707 203.781C118.259 203.474 121.444 201.715 127.262 198.503C144.619 188.928 261.079 124.901 476.642 6.42293C477.368 6.02149 478.165 5.72109 479.031 5.52172C479.076 5.51167 479.122 5.51315 479.166 5.52603C479.209 5.5389 479.249 5.56276 479.281 5.59539C479.313 5.62802 479.337 5.66837 479.35 5.71271C479.362 5.75705 479.364 5.80394 479.354 5.84906C478.894 7.81315 478.668 9.64791 478.373 11.1675C468.457 62.5947 463.29 89.3591 462.873 91.4606C458.855 111.729 449.173 128.545 433.825 141.908C428.879 146.214 423.071 150.199 416.4 153.863C399.376 163.206 342.347 194.58 245.312 247.985C223.63 259.918 204.021 270.729 186.483 280.417C186.461 280.429 186.441 280.445 186.426 280.464C186.41 280.484 186.398 280.506 186.391 280.53C186.384 280.554 186.381 280.58 186.384 280.604C186.387 280.629 186.394 280.654 186.406 280.676L231.669 363.325C231.699 363.381 231.741 363.43 231.792 363.47C231.843 363.509 231.901 363.537 231.963 363.553C232.026 363.568 232.09 363.571 232.154 363.56C232.217 363.549 232.277 363.526 232.331 363.49C232.767 363.208 233.524 362.764 234.603 362.161C243.29 357.3 329.665 309.846 493.729 219.797C494.487 219.381 495.129 219.009 495.977 219.045Z" fill="#242424"/>
<path d="M240.868 329.188C240.868 329.216 240.858 329.244 240.841 329.267C240.823 329.29 240.799 329.307 240.771 329.314C240.744 329.322 240.715 329.32 240.689 329.308C240.664 329.297 240.643 329.278 240.63 329.252L216.632 285.44C216.592 285.368 216.569 285.288 216.563 285.205C216.557 285.122 216.569 285.039 216.598 284.961C216.627 284.884 216.673 284.813 216.732 284.754C216.79 284.695 216.861 284.649 216.939 284.62C217.491 284.413 217.845 284.267 218.001 284.184C287.414 246.882 337.078 219.987 366.991 203.498C392.68 189.338 412.865 178.087 427.544 169.745C433.817 166.178 439.848 162.618 445.637 159.064C450.028 156.364 453.714 153.818 457.234 150.177C462.113 145.131 466.175 139.396 469.42 132.973C473.936 124.045 477.636 114.308 480.521 103.763C483.607 92.4872 486.116 81.3345 488.045 70.3044C489.732 60.6429 491.841 48.3357 494.37 33.3828C495.311 27.826 496.324 23.4896 497.664 18.7006C497.676 18.6578 497.703 18.6209 497.74 18.5966C497.776 18.5723 497.821 18.5622 497.865 18.568C497.909 18.5738 497.95 18.5953 497.981 18.6285C498.011 18.6616 498.029 18.7044 498.032 18.7491C498.572 41.914 497.555 64.9173 494.98 87.7589C493.764 98.5465 492.035 108.969 489.793 119.027C487.828 127.834 485.301 136.116 482.212 143.873C479.739 150.086 476.761 155.69 473.279 160.685C470.413 164.796 466.99 168.272 463.01 171.111C460.467 172.927 456.938 175.321 452.422 178.293C445.223 183.029 436.048 188.795 424.896 195.59C368.651 229.868 308.211 264.619 249.595 298.13C246.156 300.094 243.859 303.606 242.81 307.114C240.662 314.312 240.824 321.711 240.868 329.188Z" fill="#242424"/>
<path d="M226.163 561.33C226.158 561.367 226.142 561.401 226.116 561.427C226.09 561.454 226.056 561.471 226.019 561.475C225.982 561.48 225.945 561.472 225.913 561.453C225.881 561.434 225.857 561.405 225.844 561.37C225.596 560.632 225.246 559.847 224.794 559.014C219.512 549.275 212.173 536.051 202.779 519.345C202.396 518.663 202.051 518.124 201.741 517.728C201.704 517.68 201.686 517.619 201.69 517.559C201.695 517.498 201.722 517.442 201.765 517.401C202.218 516.972 202.666 516.64 203.11 516.402C280.68 474.618 331.2 447.332 354.672 434.545C388.437 416.147 415.416 401.265 435.61 389.901C444.738 384.763 453.392 379.686 461.573 374.669C470.122 369.427 476.872 361.498 481.788 352.668C486.188 344.767 489.752 335.888 492.441 327.179C496.136 315.195 499.152 302.56 501.491 289.272C504.903 269.879 507.203 256.483 508.389 249.085C509.081 244.769 510.007 240.578 511.167 236.512C511.253 236.213 511.37 236 511.518 235.874C511.558 235.84 511.607 235.819 511.659 235.812C511.711 235.805 511.764 235.813 511.812 235.835C511.86 235.857 511.9 235.892 511.929 235.936C511.957 235.98 511.973 236.031 511.974 236.084C512.224 269.978 510.763 304.103 503.356 337.303C500.732 349.075 496.703 360.71 491.093 371.286C488.525 376.124 484.969 380.941 480.88 384.789C479.201 386.367 476.553 388.354 472.936 390.749C464.182 396.547 456.204 401.644 449.003 406.038C428.096 418.8 405.98 431.985 382.653 445.59C334.33 473.777 285.565 501.706 236.359 529.375C232.1 531.768 229.469 534.746 228.141 539.478C226.666 544.735 226.039 550.196 226.259 555.862C226.335 557.78 226.303 559.603 226.163 561.33Z" fill="#242424"/>
<path d="M483.807 447.745C483.831 447.731 483.859 447.723 483.888 447.723C483.916 447.722 483.944 447.729 483.969 447.743C483.994 447.756 484.015 447.776 484.029 447.799C484.044 447.823 484.052 447.85 484.053 447.878C484.082 448.638 483.986 449.593 483.762 450.743C479.631 471.936 474.563 498.147 468.556 529.375C467.559 534.556 466.199 540.994 464.411 546.078C457.92 564.525 446.596 579.41 430.439 590.731C428.539 592.059 424.571 594.385 418.535 597.71C338.171 641.955 295.549 665.425 290.667 668.122C288.759 669.176 287.286 669.969 286.247 670.503C286.196 670.529 286.138 670.536 286.082 670.524C286.026 670.511 285.976 670.479 285.941 670.434C285.365 669.685 284.948 669.075 284.689 668.603C269.132 640.185 253.572 611.765 238.01 583.343C237.972 583.275 237.949 583.201 237.94 583.124C237.932 583.047 237.938 582.969 237.96 582.894C237.982 582.82 238.018 582.75 238.067 582.69C238.116 582.63 238.176 582.58 238.244 582.543L483.807 447.745Z" fill="#242424"/>
<path d="M318.996 729.776C318.762 729.698 318.578 729.534 318.443 729.283C309.801 713.045 300.008 696.193 296.904 690.321C296.726 689.981 296.554 689.557 296.387 689.048C296.325 688.86 296.331 688.656 296.404 688.472C296.477 688.288 296.613 688.135 296.787 688.042C335.756 667 374.094 645.992 411.802 625.017C418.545 621.267 429.847 614.799 445.705 605.615C446.2 605.326 448.276 604.018 451.934 601.69C454.401 600.122 456.374 598.669 457.851 597.33C464.822 591.013 470.332 582.729 474.244 574.169C477.333 567.412 479.993 560.345 482.224 552.968C487.758 534.685 491.605 513.577 494.681 494.268C495.311 490.315 495.951 486.584 496.603 483.073C498.27 474.065 498.77 470.291 500.566 464.33C500.666 464.004 500.813 463.75 501.006 463.57C501.026 463.551 501.05 463.539 501.076 463.534C501.102 463.529 501.129 463.532 501.154 463.543C501.179 463.554 501.2 463.572 501.216 463.594C501.231 463.617 501.24 463.644 501.241 463.671C501.642 482.358 501.078 501.104 499.549 519.91C498.763 529.596 497.589 539.22 496.025 548.781C494.427 558.569 492.282 568.011 489.591 577.107C487.398 584.524 484.47 591.597 480.807 598.324C477.848 603.764 474.203 608.864 469.715 612.994C467.018 615.475 462.59 618.341 459.543 620.361C450.342 626.469 437.562 634.423 421.203 644.221C399.077 657.474 381.243 668.011 367.702 675.833C349.109 686.575 336.371 693.961 329.487 697.991C328.427 698.614 327.367 699.317 326.307 700.101C323.061 702.497 321.059 707.007 320.272 710.713C319.064 716.398 318.716 722.692 319.23 729.594C319.233 729.624 319.228 729.653 319.216 729.68C319.204 729.707 319.185 729.73 319.162 729.748C319.139 729.766 319.112 729.778 319.083 729.783C319.054 729.788 319.024 729.786 318.996 729.776Z" fill="#242424"/>
</svg>
