<svg width="128" height="30" viewBox="0 0 128 30" fill="none" xmlns="http://www.w3.org/2000/svg">
<path d="M38.8087 21.1895L43.9377 7.1649H47.003L52.112 21.1895H49.247L45.4403 10.2503L41.6336 21.1895H38.8087ZM41.0727 18.0039L41.7939 15.9002H48.9264L49.6276 18.0039H41.0727ZM57.9336 21.4299C57.012 21.4299 56.1838 21.2028 55.4492 20.7487C54.7146 20.2946 54.1336 19.6735 53.7062 18.8854C53.2788 18.084 53.0651 17.1824 53.0651 16.1807C53.0651 15.1789 53.2788 14.284 53.7062 13.496C54.1336 12.6946 54.7146 12.0735 55.4492 11.6327C56.1972 11.1786 57.032 10.9515 57.9536 10.9515C58.6882 10.9515 59.3293 11.0851 59.877 11.3522C60.4246 11.6194 60.8654 12 61.1993 12.4942V6.7642H63.904V21.1895H61.4998L61.1993 19.807C60.9989 20.1009 60.7452 20.3747 60.438 20.6285C60.1441 20.8689 59.7902 21.0626 59.3761 21.2095C58.962 21.3564 58.4812 21.4299 57.9336 21.4299ZM58.5547 19.0657C59.0889 19.0657 59.5564 18.9455 59.9571 18.7051C60.3712 18.4513 60.6917 18.1107 60.9188 17.6833C61.1592 17.2425 61.2794 16.7417 61.2794 16.1807C61.2794 15.6197 61.1592 15.1255 60.9188 14.6981C60.6917 14.2573 60.3712 13.9167 59.9571 13.6763C59.5564 13.4359 59.0823 13.3157 58.5346 13.3157C58.0271 13.3157 57.5663 13.4359 57.1522 13.6763C56.7381 13.9167 56.4109 14.2573 56.1705 14.6981C55.9434 15.1255 55.8299 15.6197 55.8299 16.1807C55.8299 16.7417 55.9434 17.2425 56.1705 17.6833C56.4109 18.1107 56.7381 18.4513 57.1522 18.7051C57.5663 18.9455 58.0337 19.0657 58.5547 19.0657ZM66.5141 21.1895V11.192H68.8982L69.1186 12.5343C69.4392 12.0401 69.8599 11.6528 70.3808 11.3723C70.9151 11.0918 71.5295 10.9515 72.2241 10.9515C72.7316 10.9515 73.1857 11.0183 73.5864 11.1519C74.0005 11.2721 74.3611 11.4658 74.6683 11.7329C74.9889 11.9867 75.2494 12.3072 75.4497 12.6946C75.8237 12.147 76.3112 11.7195 76.9123 11.4123C77.5267 11.1051 78.1878 10.9515 78.8957 10.9515C79.7773 10.9515 80.5119 11.1318 81.0996 11.4925C81.7006 11.8398 82.1548 12.354 82.462 13.0352C82.7692 13.703 82.9228 14.5311 82.9228 15.5195V21.1895H80.2381V15.7599C80.2381 14.9452 80.0778 14.3241 79.7572 13.8967C79.4367 13.4559 78.9492 13.2355 78.2947 13.2355C77.8539 13.2355 77.4666 13.3424 77.1326 13.5561C76.7987 13.7698 76.5383 14.0837 76.3513 14.4977C76.1643 14.8984 76.0708 15.386 76.0708 15.9603V21.1895H73.3861V15.7599C73.3861 14.9452 73.2258 14.3241 72.9052 13.8967C72.5847 13.4559 72.0838 13.2355 71.4026 13.2355C70.9752 13.2355 70.5945 13.3424 70.2606 13.5561C69.9401 13.7698 69.6863 14.0837 69.4993 14.4977C69.3123 14.8984 69.2188 15.386 69.2188 15.9603V21.1895H66.5141ZM85.4749 21.1895V11.192H88.1796V21.1895H85.4749ZM86.8373 9.76946C86.3431 9.76946 85.9424 9.62922 85.6352 9.34873C85.328 9.05488 85.1744 8.68757 85.1744 8.2468C85.1744 7.80603 85.328 7.4454 85.6352 7.1649C85.9424 6.87106 86.3431 6.72413 86.8373 6.72413C87.3315 6.72413 87.7322 6.87106 88.0394 7.1649C88.36 7.4454 88.5202 7.80603 88.5202 8.2468C88.5202 8.68757 88.36 9.05488 88.0394 9.34873C87.7322 9.62922 87.3315 9.76946 86.8373 9.76946ZM90.8731 21.1895V11.192H93.2773L93.5378 13.0552C93.7915 12.6144 94.0921 12.2405 94.4393 11.9333C94.8 11.626 95.214 11.3856 95.6815 11.212C96.149 11.0384 96.6632 10.9515 97.2242 10.9515V13.8165H96.4028C95.9887 13.8165 95.6081 13.8633 95.2608 13.9568C94.9135 14.0369 94.613 14.1839 94.3592 14.3976C94.1188 14.6113 93.9251 14.9051 93.7782 15.2791C93.6446 15.6397 93.5778 16.0939 93.5778 16.6415V21.1895H90.8731ZM103.685 21.4299C102.67 21.4299 101.769 21.2162 100.98 20.7888C100.206 20.348 99.5981 19.7402 99.1573 18.9656C98.7165 18.1909 98.4961 17.296 98.4961 16.2809C98.4961 15.239 98.7098 14.3174 99.1373 13.516C99.578 12.7146 100.186 12.0869 100.96 11.6327C101.748 11.1786 102.657 10.9515 103.685 10.9515C104.687 10.9515 105.562 11.1719 106.31 11.6127C107.058 12.0401 107.645 12.6278 108.073 13.3758C108.5 14.1104 108.714 14.9519 108.714 15.9002C108.714 16.0338 108.707 16.1807 108.694 16.341C108.694 16.5012 108.681 16.6749 108.654 16.8619H100.44V15.199H105.969C105.929 14.5712 105.695 14.0703 105.268 13.6963C104.854 13.3223 104.333 13.1354 103.705 13.1354C103.238 13.1354 102.81 13.2422 102.423 13.4559C102.036 13.6563 101.728 13.9701 101.501 14.3976C101.274 14.8116 101.161 15.3392 101.161 15.9803V16.5614C101.161 17.0956 101.268 17.5631 101.481 17.9638C101.695 18.3645 101.989 18.6784 102.363 18.9055C102.75 19.1192 103.184 19.226 103.665 19.226C104.159 19.226 104.573 19.1192 104.907 18.9055C105.241 18.6917 105.488 18.4046 105.649 18.0439H108.413C108.226 18.6851 107.913 19.2594 107.472 19.767C107.031 20.2745 106.49 20.6819 105.849 20.9891C105.208 21.283 104.487 21.4299 103.685 21.4299ZM110.869 21.1895V6.7642H113.574V21.1895H110.869ZM117.473 25.5972L119.937 20.0675H119.336L115.269 11.192H118.214L121.119 17.6032L123.724 11.192H126.609L120.338 25.5972H117.473Z" fill="#A9B8B5"/>
<path d="M24.5237 9.06416H20.0221C17.3636 9.06416 11.3674 7.71916 13.1397 0.28009C12.033 0.71797 11.0836 1.47835 10.4145 2.46256C9.7454 3.44676 9.38758 4.60935 9.38745 5.79945V7.97587C9.38745 8.35672 9.40039 8.72927 9.42627 9.09353C15.0944 9.47283 20.7052 13.5095 21.2203 20.906C21.5132 20.926 21.8064 20.936 22.1 20.936H24.5237C26.0979 20.936 27.6077 20.3106 28.7208 19.1974C29.834 18.0843 30.4593 16.5745 30.4593 15.0003C30.4593 13.426 29.834 11.9163 28.7208 10.8031C27.6077 9.68997 26.0979 9.06461 24.5237 9.06461V9.06416Z" fill="#A9B8B5"/>
<path d="M8.54677 9.06415H6.12293C4.54869 9.06415 3.03893 9.68951 1.92577 10.8027C0.812619 11.9158 0.187256 13.4256 0.187256 14.9998C0.187256 16.5741 0.812619 18.0838 1.92577 19.197C3.03893 20.3101 4.54869 20.9355 6.12293 20.9355H10.6243C13.2825 20.9355 19.2787 22.2805 17.5068 29.7199C18.6133 29.2818 19.5627 28.5214 20.2317 27.5372C20.9008 26.553 21.2586 25.3904 21.2588 24.2004V22.0236C21.2588 13.5162 14.7795 9.06415 8.54677 9.06415Z" fill="#A9B8B5"/>
</svg>
