<svg width="146" height="30" viewBox="0 0 146 30" fill="none" xmlns="http://www.w3.org/2000/svg">
<rect x="11.5776" y="23.8282" width="18.9479" height="5.79531" fill="#A9B8B5"/>
<circle cx="11.5775" cy="18.0459" r="11.5775" fill="#A9B8B5"/>
<circle cx="29.5526" cy="15" r="14.6234" fill="#A9B8B5"/>
<path d="M62.6197 23.0875C60.8898 23.0875 59.4046 22.7203 58.1643 21.9859C56.924 21.2351 55.9611 20.1988 55.2756 18.8769C54.6065 17.5386 54.272 15.9964 54.272 14.2501C54.272 12.5038 54.6065 10.9616 55.2756 9.62333C55.9611 8.28508 56.924 7.24059 58.1643 6.48986C59.4046 5.73913 60.8898 5.36377 62.6197 5.36377C64.6924 5.36377 66.3897 5.87785 67.7116 6.90602C69.0499 7.93419 69.8822 9.38669 70.2086 11.2635H66.561C66.3652 10.3496 65.9327 9.63965 65.2636 9.13373C64.5945 8.61148 63.705 8.35036 62.5952 8.35036C61.5507 8.35036 60.6613 8.59516 59.9269 9.08477C59.1925 9.55805 58.6294 10.2353 58.2378 11.1166C57.8461 11.9816 57.6502 13.0261 57.6502 14.2501C57.6502 15.4578 57.8461 16.5023 58.2378 17.3836C58.6294 18.2649 59.1925 18.9421 59.9269 19.4154C60.6613 19.8887 61.5507 20.1254 62.5952 20.1254C63.705 20.1254 64.5863 19.8887 65.2391 19.4154C65.9082 18.9258 66.3489 18.2485 66.561 17.3836H70.2086C69.8822 19.1625 69.0499 20.5578 67.7116 21.5697C66.3897 22.5815 64.6924 23.0875 62.6197 23.0875ZM72.8588 22.7937V5.19241H76.1636V22.7937H72.8588ZM85.1643 23.0875C83.9892 23.0875 82.9284 22.8182 81.9819 22.2796C81.0516 21.7411 80.309 20.9903 79.7542 20.0274C79.1993 19.0645 78.9218 17.9629 78.9218 16.7226C78.9218 15.4659 79.1993 14.3643 79.7542 13.4178C80.309 12.4549 81.0598 11.7042 82.0063 11.1656C82.9529 10.627 84.0056 10.3577 85.1643 10.3577C86.3557 10.3577 87.4165 10.627 88.3467 11.1656C89.2933 11.7042 90.044 12.4549 90.5989 13.4178C91.1538 14.3643 91.4312 15.4659 91.4312 16.7226C91.4312 17.9793 91.1538 19.089 90.5989 20.0519C90.044 20.9985 89.2933 21.7411 88.3467 22.2796C87.4002 22.8182 86.3393 23.0875 85.1643 23.0875ZM85.1643 20.2478C85.7029 20.2478 86.1843 20.1172 86.6086 19.8561C87.033 19.5786 87.3757 19.1788 87.6368 18.6565C87.9142 18.1343 88.053 17.4896 88.053 16.7226C88.053 15.9392 87.9224 15.2864 87.6613 14.7642C87.4002 14.2419 87.0493 13.8503 86.6086 13.5891C86.1843 13.328 85.711 13.1974 85.1888 13.1974C84.6665 13.1974 84.1851 13.328 83.7444 13.5891C83.3201 13.8503 82.9692 14.2419 82.6918 14.7642C82.4307 15.2864 82.3001 15.9392 82.3001 16.7226C82.3001 17.4896 82.4307 18.1343 82.6918 18.6565C82.9692 19.1788 83.3201 19.5786 83.7444 19.8561C84.1851 20.1172 84.6584 20.2478 85.1643 20.2478ZM98.7367 23.0875C97.7248 23.0875 96.8599 22.8753 96.1418 22.451C95.44 22.0267 94.9014 21.3983 94.5261 20.566C94.167 19.7174 93.9875 18.681 93.9875 17.457V10.6515H97.2923V17.1632C97.2923 18.1751 97.4882 18.9503 97.8799 19.4889C98.2879 20.0274 98.9407 20.2967 99.8383 20.2967C100.393 20.2967 100.891 20.1662 101.332 19.905C101.772 19.6276 102.115 19.2441 102.36 18.7545C102.605 18.2485 102.727 17.6365 102.727 16.9184V10.6515H106.032V22.7937H103.119L102.874 20.7618C102.498 21.4636 101.952 22.0267 101.234 22.451C100.532 22.8753 99.6996 23.0875 98.7367 23.0875ZM114.754 23.0875C113.628 23.0875 112.608 22.81 111.694 22.2551C110.797 21.7003 110.087 20.9414 109.564 19.9785C109.042 18.9993 108.781 17.9058 108.781 16.6981C108.781 15.4741 109.042 14.3888 109.564 13.4422C110.087 12.4794 110.797 11.7286 111.694 11.1901C112.608 10.6352 113.628 10.3577 114.754 10.3577C115.668 10.3577 116.46 10.5291 117.129 10.8718C117.798 11.1982 118.336 11.6552 118.744 12.2427V5.19241H122.049V22.7937H119.136L118.769 21.0801C118.508 21.4391 118.19 21.7737 117.814 22.0838C117.455 22.3939 117.023 22.6387 116.517 22.8182C116.011 22.9977 115.423 23.0875 114.754 23.0875ZM115.489 20.2233C116.141 20.2233 116.721 20.0764 117.227 19.7826C117.733 19.4725 118.124 19.0564 118.402 18.5341C118.696 17.9956 118.842 17.3917 118.842 16.7226C118.842 16.0372 118.696 15.4333 118.402 14.9111C118.124 14.3888 117.733 13.9808 117.227 13.6871C116.721 13.377 116.141 13.2219 115.489 13.2219C114.852 13.2219 114.281 13.377 113.775 13.6871C113.269 13.9808 112.869 14.3888 112.575 14.9111C112.298 15.4333 112.159 16.029 112.159 16.6981C112.159 17.3836 112.298 17.9874 112.575 18.5097C112.869 19.0319 113.269 19.4481 113.775 19.7582C114.281 20.0682 114.852 20.2233 115.489 20.2233ZM125.214 22.7937V5.19241H128.519V22.7937H125.214ZM133.235 28.1549L136.247 21.4228H135.512L130.543 10.6515H134.141L137.715 18.4362L140.873 10.6515H144.398L136.736 28.1549H133.235Z" fill="#A9B8B5"/>
</svg>
