<svg width="131" height="30" viewBox="0 0 131 30" fill="none" xmlns="http://www.w3.org/2000/svg">
<path d="M45.4809 22.9878C43.7623 22.9878 42.2869 22.623 41.0546 21.8934C39.8224 21.1476 38.8658 20.1181 38.1849 18.8048C37.5201 17.4753 37.1878 15.9431 37.1878 14.2083C37.1878 12.4735 37.5201 10.9413 38.1849 9.61181C38.8658 8.28232 39.8224 7.24466 41.0546 6.49885C42.2869 5.75303 43.7623 5.38013 45.4809 5.38013C47.54 5.38013 49.2262 5.89085 50.5395 6.91229C51.8689 7.93373 52.6958 9.37672 53.0201 11.2413H49.4207C49.21 10.3333 48.7722 9.62802 48.1074 9.12541C47.4427 8.60658 46.5591 8.34717 45.4566 8.34717C44.4189 8.34717 43.5353 8.59037 42.8057 9.07677C42.0761 9.54696 41.5167 10.2198 41.1276 11.0953C40.7385 11.9546 40.5439 12.9923 40.5439 14.2083C40.5439 15.4081 40.7385 16.4457 41.1276 17.3213C41.5167 18.1968 42.0761 18.8696 42.8057 19.3398C43.5353 19.81 44.4189 20.0451 45.4566 20.0451C46.5591 20.0451 47.4427 19.81 48.1074 19.3398C48.7722 18.8534 49.2018 18.1806 49.3964 17.3213H53.0201C52.6958 19.0885 51.8689 20.4748 50.5395 21.48C49.2262 22.4852 47.54 22.9878 45.4809 22.9878ZM59.8354 22.9878C58.814 22.9878 57.9709 22.8257 57.3061 22.5014C56.6414 22.1772 56.1469 21.7394 55.8226 21.1881C55.4983 20.6369 55.3362 20.0289 55.3362 19.3641C55.3362 18.6183 55.5226 17.9698 55.8956 17.4185C56.2847 16.8511 56.8684 16.4052 57.6466 16.0809C58.4248 15.7567 59.3976 15.5945 60.565 15.5945H63.605C63.605 15.0109 63.5158 14.5326 63.3375 14.1597C63.1753 13.7705 62.924 13.4868 62.5836 13.3085C62.2431 13.1139 61.7972 13.0166 61.246 13.0166C60.6299 13.0166 60.0948 13.1544 59.6408 13.4301C59.1869 13.7057 58.9112 14.1272 58.814 14.6947H55.628C55.7091 13.803 56.0009 13.0328 56.5036 12.3843C57.0062 11.7358 57.6709 11.2331 58.4978 10.8765C59.3247 10.5198 60.2488 10.3414 61.2703 10.3414C62.4214 10.3414 63.4185 10.536 64.2616 10.9251C65.1047 11.298 65.7533 11.8574 66.2072 12.6032C66.6612 13.3328 66.8882 14.2245 66.8882 15.2784V22.696H64.14L63.7752 20.8233C63.5969 21.1476 63.378 21.4394 63.1186 21.6989C62.8754 21.9583 62.5917 22.1853 62.2674 22.3798C61.9431 22.5744 61.5783 22.7203 61.173 22.8176C60.7839 22.9311 60.338 22.9878 59.8354 22.9878ZM60.638 20.4585C61.0595 20.4585 61.4324 20.3856 61.7567 20.2397C62.0972 20.0775 62.389 19.8668 62.6322 19.6073C62.8754 19.3479 63.0619 19.048 63.1916 18.7075C63.3375 18.367 63.4348 18.0022 63.4834 17.6131H60.9541C60.4515 17.6131 60.0381 17.678 59.7138 17.8077C59.3895 17.9212 59.1544 18.0914 59.0085 18.3184C58.8626 18.5292 58.7896 18.7805 58.7896 19.0723C58.7896 19.3641 58.8626 19.6154 59.0085 19.8262C59.1707 20.037 59.3895 20.1991 59.6652 20.3126C59.9408 20.4099 60.2651 20.4585 60.638 20.4585ZM69.8317 22.696V10.6333H72.7258L72.9933 12.2627H73.0176C73.4067 11.6628 73.9175 11.1926 74.5498 10.8521C75.1821 10.5117 75.9279 10.3414 76.7872 10.3414C77.3871 10.3414 77.9384 10.4225 78.441 10.5846C78.9436 10.7305 79.3814 10.9656 79.7543 11.2899C80.1434 11.5979 80.4676 11.9871 80.7271 12.4573C81.181 11.8087 81.7728 11.298 82.5024 10.9251C83.2482 10.536 84.0589 10.3414 84.9344 10.3414C85.9883 10.3414 86.88 10.5603 87.6096 10.9981C88.3392 11.4196 88.8905 12.0438 89.2634 12.8707C89.6363 13.6976 89.8228 14.719 89.8228 15.935V22.696H86.5639V16.2269C86.5639 15.2216 86.3693 14.4515 85.9802 13.9165C85.5911 13.3814 84.9912 13.1139 84.1805 13.1139C83.6455 13.1139 83.1672 13.2517 82.7456 13.5273C82.3403 13.7867 82.0241 14.1678 81.7971 14.6704C81.5864 15.1568 81.481 15.7567 81.481 16.4701V22.696H78.1978V16.2269C78.1978 15.2216 78.0032 14.4515 77.6141 13.9165C77.225 13.3814 76.617 13.1139 75.7901 13.1139C75.2713 13.1139 74.8092 13.2517 74.4039 13.5273C73.9985 13.7867 73.6824 14.1678 73.4554 14.6704C73.2284 15.1568 73.1149 15.7567 73.1149 16.4701V22.696H69.8317ZM98.6845 22.9878C97.4523 22.9878 96.3579 22.7284 95.4013 22.2096C94.461 21.6908 93.7233 20.9612 93.1882 20.0208C92.6532 19.0804 92.3857 18.0022 92.3857 16.7862C92.3857 15.5216 92.6451 14.411 93.1639 13.4544C93.6989 12.4816 94.4367 11.7195 95.377 11.1683C96.3174 10.617 97.4199 10.3414 98.6845 10.3414C99.8843 10.3414 100.938 10.6008 101.846 11.1197C102.77 11.6385 103.492 12.3519 104.011 13.2598C104.529 14.1515 104.789 15.1649 104.789 16.2998C104.789 16.462 104.781 16.6484 104.765 16.8592C104.765 17.0537 104.756 17.2564 104.74 17.4672H94.7204V15.4486H101.457C101.408 14.719 101.125 14.1272 100.606 13.6733C100.103 13.2193 99.4709 12.9923 98.7089 12.9923C98.1414 12.9923 97.6226 13.122 97.1524 13.3814C96.6822 13.6246 96.3093 13.9975 96.0337 14.5001C95.758 15.0027 95.6202 15.6351 95.6202 16.3971V17.1024C95.6202 17.7509 95.7499 18.3184 96.0093 18.8048C96.2688 19.2912 96.6255 19.6641 97.0794 19.9235C97.5496 20.1829 98.0765 20.3126 98.6602 20.3126C99.2601 20.3126 99.7627 20.1829 100.168 19.9235C100.573 19.6479 100.881 19.2993 101.092 18.8777H104.424C104.197 19.6398 103.816 20.3369 103.281 20.9693C102.746 21.5854 102.089 22.0799 101.311 22.4528C100.533 22.8095 99.6574 22.9878 98.6845 22.9878ZM107.357 22.696V10.6333H110.275L110.591 12.895C110.899 12.3762 111.264 11.9303 111.686 11.5574C112.107 11.1683 112.594 10.8683 113.145 10.6576C113.712 10.4468 114.337 10.3414 115.018 10.3414V13.8192H114.093C113.591 13.8192 113.129 13.8759 112.707 13.9894C112.286 14.1029 111.921 14.2894 111.613 14.5488C111.305 14.8082 111.061 15.1649 110.883 15.6189C110.721 16.0566 110.64 16.6079 110.64 17.2726V22.696H107.357ZM121.253 22.9878C120.232 22.9878 119.388 22.8257 118.724 22.5014C118.059 22.1772 117.564 21.7394 117.24 21.1881C116.916 20.6369 116.754 20.0289 116.754 19.3641C116.754 18.6183 116.94 17.9698 117.313 17.4185C117.702 16.8511 118.286 16.4052 119.064 16.0809C119.842 15.7567 120.815 15.5945 121.983 15.5945H125.023C125.023 15.0109 124.933 14.5326 124.755 14.1597C124.593 13.7705 124.342 13.4868 124.001 13.3085C123.661 13.1139 123.215 13.0166 122.664 13.0166C122.047 13.0166 121.512 13.1544 121.058 13.4301C120.604 13.7057 120.329 14.1272 120.232 14.6947H117.046C117.127 13.803 117.419 13.0328 117.921 12.3843C118.424 11.7358 119.088 11.2331 119.915 10.8765C120.742 10.5198 121.666 10.3414 122.688 10.3414C123.839 10.3414 124.836 10.536 125.679 10.9251C126.522 11.298 127.171 11.8574 127.625 12.6032C128.079 13.3328 128.306 14.2245 128.306 15.2784V22.696H125.558L125.193 20.8233C125.014 21.1476 124.796 21.4394 124.536 21.6989C124.293 21.9583 124.009 22.1853 123.685 22.3798C123.361 22.5744 122.996 22.7203 122.591 22.8176C122.201 22.9311 121.756 22.9878 121.253 22.9878ZM122.056 20.4585C122.477 20.4585 122.85 20.3856 123.174 20.2397C123.515 20.0775 123.807 19.8668 124.05 19.6073C124.293 19.3479 124.479 19.048 124.609 18.7075C124.755 18.367 124.852 18.0022 124.901 17.6131H122.372C121.869 17.6131 121.456 17.678 121.131 17.8077C120.807 17.9212 120.572 18.0914 120.426 18.3184C120.28 18.5292 120.207 18.7805 120.207 19.0723C120.207 19.3641 120.28 19.6154 120.426 19.8262C120.588 20.037 120.807 20.1991 121.083 20.3126C121.358 20.4099 121.683 20.4585 122.056 20.4585Z" fill="#A9B8B5"/>
<mask id="mask0_55_99" style="mask-type:alpha" maskUnits="userSpaceOnUse" x="0" y="0" width="29" height="30">
<circle cx="14.5663" cy="15" r="14.3715" fill="#C4C4C4"/>
</mask>
<g mask="url(#mask0_55_99)">
<circle cx="7.72912" cy="-1.92382" r="11.9235" transform="rotate(-22 7.72912 -1.92382)" fill="#A9B8B5"/>
<circle cx="21.4044" cy="31.9232" r="11.9235" transform="rotate(-22 21.4044 31.9232)" fill="#A9B8B5"/>
<circle cx="-2.35609" cy="21.8375" r="11.9235" transform="rotate(-22 -2.35609 21.8375)" fill="#A9B8B5"/>
<circle cx="31.1771" cy="7.38709" r="11.9235" transform="rotate(-22 31.1771 7.38709)" fill="#A9B8B5"/>
</g>
</svg>
