<svg width="152" height="30" viewBox="0 0 152 30" fill="none" xmlns="http://www.w3.org/2000/svg">
<path d="M58.6026 24.2257C56.8405 24.2257 55.3133 23.8481 54.021 23.0929C52.7456 22.3209 51.7638 21.2553 51.0758 19.8959C50.3877 18.5198 50.0437 16.9339 50.0437 15.1382C50.0437 13.3425 50.3877 11.7565 51.0758 10.3804C51.7638 9.00426 52.7456 7.9302 54.021 7.15822C55.3133 6.38624 56.8405 6.00025 58.6026 6.00025C60.7507 6.00025 62.5044 6.52889 63.8638 7.58617C65.2399 8.64345 66.0958 10.1371 66.4315 12.067H62.6807C62.4625 11.1272 62.0094 10.3972 61.3213 9.87694C60.6332 9.33991 59.7186 9.07139 58.5774 9.07139C57.5201 9.07139 56.6139 9.32313 55.8587 9.82659C55.1035 10.3133 54.5245 11.0097 54.1217 11.916C53.719 12.8054 53.5176 13.8795 53.5176 15.1382C53.5176 16.38 53.719 17.4541 54.1217 18.3603C54.5245 19.2666 55.1035 19.963 55.8587 20.4497C56.6139 20.9196 57.5201 21.1546 58.5774 21.1546C59.7186 21.1546 60.6332 20.9112 61.3213 20.4246C62.0094 19.9379 62.4625 19.2498 62.6807 18.3603H66.4315C66.0958 20.1896 65.2399 21.6245 63.8638 22.665C62.5044 23.7055 60.7507 24.2257 58.6026 24.2257ZM75.1479 24.2257C73.9396 24.2257 72.8488 23.9488 71.8754 23.395C70.9188 22.8412 70.1552 22.0692 69.5846 21.0791C69.014 20.0889 68.7287 18.9561 68.7287 17.6807C68.7287 16.3884 69.014 15.2556 69.5846 14.2823C70.1552 13.2921 70.9272 12.5201 71.9006 11.9663C72.8739 11.4125 73.9564 11.1356 75.1479 11.1356C76.373 11.1356 77.4639 11.4125 78.4205 11.9663C79.3938 12.5201 80.1574 13.2921 80.7112 14.2823C81.2818 15.2556 81.5671 16.3884 81.5671 17.6807C81.5671 18.9729 81.2818 20.1141 80.7112 21.1042C80.1574 22.0776 79.3938 22.8412 78.4205 23.395C77.4471 23.9488 76.3563 24.2257 75.1479 24.2257ZM75.1479 21.3056C75.685 21.3056 76.1717 21.1714 76.608 20.9028C77.0611 20.6343 77.4219 20.2316 77.6904 19.6945C77.9757 19.1407 78.1184 18.4694 78.1184 17.6807C78.1184 16.8751 77.9841 16.2038 77.7156 15.6668C77.4471 15.1298 77.0863 14.727 76.6332 14.4585C76.1968 14.19 75.7101 14.0557 75.1731 14.0557C74.6361 14.0557 74.141 14.19 73.6879 14.4585C73.2515 14.727 72.8907 15.1298 72.6054 15.6668C72.3369 16.2038 72.2027 16.8751 72.2027 17.6807C72.2027 18.4694 72.3369 19.1407 72.6054 19.6945C72.8907 20.2316 73.2515 20.6343 73.6879 20.9028C74.141 21.1714 74.6277 21.3056 75.1479 21.3056ZM90.0875 24.2257C88.9295 24.2257 87.889 23.9404 86.966 23.3698C86.043 22.7992 85.313 22.0189 84.7759 21.0287C84.2389 20.0386 83.9704 18.9142 83.9704 17.6555C83.9704 16.3968 84.2389 15.2808 84.7759 14.3074C85.313 13.3173 86.043 12.5453 86.966 11.9915C87.9058 11.4209 88.9547 11.1356 90.1127 11.1356C91.0357 11.1356 91.8413 11.3118 92.5293 11.6642C93.2342 11.9999 93.7964 12.4698 94.2159 13.0739V5.82404H97.6143V23.9236H94.6187L94.2411 22.1615C93.9726 22.5307 93.6453 22.8748 93.2593 23.1936C92.8901 23.5125 92.4454 23.7642 91.9252 23.9488C91.4049 24.1334 90.7924 24.2257 90.0875 24.2257ZM90.8679 21.2804C91.5392 21.2804 92.1349 21.1294 92.6552 20.8273C93.1754 20.5085 93.5782 20.0805 93.8635 19.5435C94.1656 18.9897 94.3166 18.3687 94.3166 17.6807C94.3166 16.9758 94.1656 16.3549 93.8635 15.8178C93.5782 15.2808 93.1754 14.8613 92.6552 14.5592C92.1349 14.2403 91.5392 14.0809 90.8679 14.0809C90.2134 14.0809 89.626 14.2403 89.1058 14.5592C88.5855 14.8613 88.1743 15.2808 87.8723 15.8178C87.587 16.3549 87.4443 16.9674 87.4443 17.6555C87.4443 18.3603 87.587 18.9897 87.8723 19.5435C88.1743 20.0805 88.5855 20.5085 89.1058 20.8273C89.626 21.1294 90.2134 21.2804 90.8679 21.2804ZM106.962 24.2257C105.669 24.2257 104.528 23.9572 103.538 23.4202C102.565 22.8831 101.801 22.1279 101.247 21.1546C100.694 20.1812 100.417 19.0652 100.417 17.8065C100.417 16.4975 100.685 15.3479 101.222 14.3578C101.776 13.3509 102.54 12.5621 103.513 11.9915C104.503 11.4209 105.653 11.1356 106.962 11.1356C108.204 11.1356 109.294 11.4041 110.234 11.9412C111.191 12.4782 111.929 13.2166 112.449 14.1564C112.987 15.0794 113.255 16.1283 113.255 17.3031C113.255 17.4709 113.255 17.6639 113.255 17.8821C113.255 18.0834 113.238 18.2932 113.205 18.5114H102.858V16.422H109.831C109.781 15.65 109.487 15.0375 108.95 14.5843C108.413 14.1144 107.75 13.8795 106.962 13.8795C106.374 13.8795 105.837 14.0138 105.351 14.2823C104.864 14.534 104.478 14.92 104.193 15.4402C103.907 15.9605 103.765 16.615 103.765 17.4038V18.1338C103.765 18.8051 103.899 19.3924 104.167 19.8959C104.436 20.3994 104.805 20.7854 105.275 21.0539C105.762 21.3224 106.307 21.4567 106.911 21.4567C107.532 21.4567 108.053 21.3224 108.472 21.0539C108.892 20.7686 109.211 20.4078 109.429 19.9714H112.903C112.668 20.7602 112.265 21.4818 111.694 22.1363C111.14 22.7741 110.461 23.2859 109.655 23.6719C108.85 24.0411 107.952 24.2257 106.962 24.2257ZM115.889 23.9236V5.82404H119.287V23.9236H115.889ZM122.603 23.9236V11.4377H126.002V23.9236H122.603ZM124.29 9.65038C123.686 9.65038 123.182 9.46577 122.779 9.09657C122.393 8.72736 122.2 8.27424 122.2 7.73721C122.2 7.16661 122.393 6.7051 122.779 6.35268C123.182 6.00025 123.686 5.82404 124.29 5.82404C124.911 5.82404 125.414 6.00025 125.8 6.35268C126.203 6.7051 126.404 7.16661 126.404 7.73721C126.404 8.27424 126.203 8.72736 125.8 9.09657C125.414 9.46577 124.911 9.65038 124.29 9.65038ZM129.841 23.9236V10.1287C129.841 9.08818 130.017 8.25746 130.37 7.63651C130.722 6.99879 131.226 6.53728 131.88 6.25198C132.552 5.96668 133.332 5.82404 134.221 5.82404H135.606V8.71897H134.725C134.188 8.71897 133.802 8.82805 133.567 9.04622C133.349 9.24761 133.24 9.60842 133.24 10.1287V23.9236H129.841ZM128.155 14.2571V11.4377H135.858V14.2571H128.155ZM139.969 29.4366L143.091 22.5139H142.335L137.225 11.4377H140.926L144.576 19.4428L147.848 11.4377H151.473L143.569 29.4366H139.969Z" fill="#A9B8B5"/>
<path d="M16.9833 29.7201C16.7534 29.7201 16.5119 29.6971 16.2704 29.6281C14.695 29.2371 13.7291 27.6388 14.1201 26.0634L20.0076 2.51337C20.41 0.937999 22.0084 -0.0164176 23.5838 0.36305C25.1591 0.765514 26.1136 2.36388 25.7226 3.93925L19.8351 27.4893C19.5016 28.8232 18.3057 29.7201 16.9833 29.7201Z" fill="#A9B8B5"/>
<path d="M30.8312 23.8327C30.0723 23.8327 29.3248 23.5453 28.7499 22.9703C27.6 21.8204 27.6 19.9576 28.7499 18.8077L32.5561 15.0015L28.7499 11.1953C27.6 10.0454 27.6 8.18256 28.7499 7.03265C29.8998 5.88275 31.7626 5.88275 32.9125 7.03265L38.8 12.9202C39.9499 14.0701 39.9499 15.9329 38.8 17.0828L32.9125 22.9703C32.3376 23.5453 31.5901 23.8327 30.8312 23.8327Z" fill="#A9B8B5"/>
<path d="M9.01265 23.8327C8.25372 23.8327 7.50628 23.5453 6.93133 22.9703L1.04382 17.0828C-0.106079 15.9329 -0.106079 14.0701 1.04382 12.9202L6.93133 7.03265C8.08123 5.88275 9.94407 5.88275 11.094 7.03265C12.2439 8.18256 12.2439 10.0454 11.094 11.1953L7.2878 15.0015L11.094 18.8077C12.2439 19.9576 12.2439 21.8204 11.094 22.9703C10.519 23.5453 9.77159 23.8327 9.01265 23.8327Z" fill="#A9B8B5"/>
</svg>
