<svg width="131" height="30" viewBox="0 0 131 30" fill="none" xmlns="http://www.w3.org/2000/svg">
<path d="M40.8453 22.2801V4.42106H44.3661L52.5047 16.8203V4.42106H55.949V22.2801H52.4282L44.2896 9.90634V22.2801H40.8453ZM63.5437 22.5862C62.4721 22.5862 61.5877 22.4162 60.8903 22.076C60.193 21.7358 59.6742 21.2766 59.334 20.6983C58.9939 20.12 58.8238 19.4822 58.8238 18.7848C58.8238 18.0024 59.0194 17.3221 59.4106 16.7438C59.8188 16.1485 60.4311 15.6808 61.2475 15.3406C62.0639 15.0004 63.0929 14.8303 64.3346 14.8303H67.5237C67.5237 14.218 67.4301 13.7163 67.243 13.3251C67.0729 12.9169 66.8008 12.6107 66.4266 12.4066C66.0694 12.2025 65.6102 12.1004 65.0489 12.1004C64.3856 12.1004 63.8158 12.2535 63.3396 12.5597C62.8803 12.8488 62.5997 13.291 62.4976 13.8863H59.1299C59.232 12.9509 59.5466 12.143 60.0739 11.4626C60.6012 10.7823 61.2985 10.255 62.166 9.88082C63.0334 9.50663 63.9944 9.31954 65.0489 9.31954C66.2565 9.31954 67.3026 9.52364 68.187 9.93185C69.0714 10.323 69.7518 10.9098 70.228 11.6922C70.7213 12.4576 70.9679 13.3931 70.9679 14.4987V22.2801H68.0594L67.6767 20.3156C67.4896 20.6558 67.26 20.9619 66.9879 21.2341C66.7328 21.5062 66.4351 21.7443 66.0949 21.9484C65.7548 22.1525 65.3721 22.3056 64.9469 22.4077C64.5216 22.5267 64.0539 22.5862 63.5437 22.5862ZM64.3856 19.9329C64.8448 19.9329 65.2445 19.8564 65.5847 19.7033C65.9419 19.5332 66.2395 19.3121 66.4776 19.04C66.7328 18.7678 66.9369 18.4532 67.0899 18.096C67.243 17.7388 67.3366 17.3561 67.3706 16.9479H64.7172C64.19 16.9479 63.7563 17.0159 63.4161 17.152C63.0929 17.2711 62.8548 17.4496 62.7017 17.6878C62.5487 17.9089 62.4721 18.1725 62.4721 18.4787C62.4721 18.7848 62.5487 19.0485 62.7017 19.2696C62.8548 19.4907 63.0759 19.6608 63.3651 19.7798C63.6542 19.8819 63.9944 19.9329 64.3856 19.9329ZM79.5215 22.2801C78.6371 22.2801 77.8547 22.144 77.1743 21.8719C76.494 21.5827 75.9667 21.115 75.5925 20.4687C75.2183 19.8053 75.0312 18.9039 75.0312 17.7643V12.4831H72.8882V9.62569H75.0312L75.4394 6.18145H78.4755V9.62569H81.8432V12.4831H78.4755V17.8153C78.4755 18.3936 78.603 18.7933 78.8582 19.0144C79.1133 19.2356 79.5555 19.3461 80.1848 19.3461H81.7922V22.2801H79.5215ZM89.2399 22.5862C88.2024 22.5862 87.3094 22.3651 86.5611 21.9229C85.8297 21.4807 85.2684 20.8259 84.8772 19.9584C84.503 19.074 84.3159 17.9939 84.3159 16.7183V9.62569H87.7347V16.4121C87.7347 17.4667 87.9473 18.2746 88.3725 18.8358C88.7977 19.3971 89.4695 19.6778 90.388 19.6778C90.9833 19.6778 91.5021 19.5417 91.9443 19.2696C92.4035 18.9804 92.7607 18.5807 93.0158 18.0705C93.288 17.5432 93.424 16.9054 93.424 16.157V9.62569H96.8683V22.2801H93.8322L93.5771 20.1625H93.5516C93.1604 20.8939 92.5991 21.4807 91.8677 21.9229C91.1364 22.3651 90.2604 22.5862 89.2399 22.5862ZM100.067 22.2801V9.62569H103.103L103.435 12.0494C103.758 11.4541 104.141 10.9609 104.583 10.5697C105.025 10.1615 105.535 9.85531 106.114 9.65121C106.709 9.4301 107.364 9.31954 108.078 9.31954V12.9679H107.134C106.59 12.9679 106.088 13.0274 105.629 13.1465C105.187 13.2655 104.804 13.4611 104.481 13.7333C104.175 14.0054 103.936 14.3796 103.766 14.8558C103.596 15.3151 103.511 15.8934 103.511 16.5907V22.2801H100.067ZM114.545 22.5862C113.473 22.5862 112.589 22.4162 111.891 22.076C111.194 21.7358 110.675 21.2766 110.335 20.6983C109.995 20.12 109.825 19.4822 109.825 18.7848C109.825 18.0024 110.02 17.3221 110.411 16.7438C110.82 16.1485 111.432 15.6808 112.248 15.3406C113.065 15.0004 114.094 14.8303 115.335 14.8303H118.525C118.525 14.218 118.431 13.7163 118.244 13.3251C118.074 12.9169 117.802 12.6107 117.427 12.4066C117.07 12.2025 116.611 12.1004 116.05 12.1004C115.386 12.1004 114.817 12.2535 114.34 12.5597C113.881 12.8488 113.601 13.291 113.498 13.8863H110.131C110.233 12.9509 110.548 12.143 111.075 11.4626C111.602 10.7823 112.299 10.255 113.167 9.88082C114.034 9.50663 114.995 9.31954 116.05 9.31954C117.257 9.31954 118.303 9.52364 119.188 9.93185C120.072 10.323 120.753 10.9098 121.229 11.6922C121.722 12.4576 121.969 13.3931 121.969 14.4987V22.2801H119.06L118.678 20.3156C118.491 20.6558 118.261 20.9619 117.989 21.2341C117.734 21.5062 117.436 21.7443 117.096 21.9484C116.756 22.1525 116.373 22.3056 115.948 22.4077C115.523 22.5267 115.055 22.5862 114.545 22.5862ZM115.386 19.9329C115.846 19.9329 116.245 19.8564 116.586 19.7033C116.943 19.5332 117.24 19.3121 117.479 19.04C117.734 18.7678 117.938 18.4532 118.091 18.096C118.244 17.7388 118.337 17.3561 118.371 16.9479H115.718C115.191 16.9479 114.757 17.0159 114.417 17.152C114.094 17.2711 113.856 17.4496 113.703 17.6878C113.55 17.9089 113.473 18.1725 113.473 18.4787C113.473 18.7848 113.55 19.0485 113.703 19.2696C113.856 19.4907 114.077 19.6608 114.366 19.7798C114.655 19.8819 114.995 19.9329 115.386 19.9329ZM124.957 22.2801V3.96183H128.401V22.2801H124.957Z" fill="#A9B8B5"/>
<path d="M2.48434 29.7198C1.85962 29.7198 1.29301 29.3421 1.05474 28.7639C0.813569 28.1856 0.947231 27.5173 1.3889 27.0757L9.8154 18.6491C10.4227 18.0448 11.4019 18.0448 12.0063 18.6491C12.6136 19.2535 12.6136 20.2357 12.0063 20.84L3.57979 29.2665C3.29212 29.5571 2.89695 29.7198 2.48434 29.7198Z" fill="#A9B8B5"/>
<path d="M27.2927 1.13659L5.25885 23.1675C0.656231 18.5649 0.656231 11.1002 5.25885 6.49469C11.8083 -0.0547429 27.2927 1.13659 27.2927 1.13659Z" fill="#A9B8B5"/>
<path d="M21.9312 23.1673C17.3285 27.7728 9.86382 27.7728 5.2583 23.1673L27.2922 1.13635C27.2922 1.13635 28.4835 16.6179 21.9312 23.1673Z" fill="#A9B8B5"/>
</svg>
