<svg width="119" height="32" viewBox="0 0 119 32" fill="none" xmlns="http://www.w3.org/2000/svg">
<path d="M0.36792 9.77738C0.36792 9.37728 0.580261 9.00723 0.925697 8.80535L14.2981 0.990018C15.0487 0.55136 15.9921 1.0927 15.9921 1.96205V13.7389L8.26294 9.13133V31.9999H1.49379C0.871991 31.9999 0.36792 31.4959 0.36792 30.8741V9.77738Z" fill="#A9B8B5"/>
<path d="M15.9924 13.7533L23.2809 18.2253C23.6146 18.43 23.818 18.7934 23.818 19.1849V30.8742C23.818 31.496 23.3139 32.0001 22.6921 32.0001H17.1183C16.4965 32.0001 15.9924 31.496 15.9924 30.8742V13.7533Z" fill="#A9B8B5"/>
<path d="M44.4891 26.4156V11.2855H47.4071V26.4156H44.4891ZM34.9355 26.4156V11.2855H37.8534V26.4156H34.9355ZM37.4644 19.8664V17.5105H44.9646V19.8664H37.4644ZM53.9549 26.675C53.0471 26.675 52.2906 26.5309 51.6854 26.2427C51.0946 25.9545 50.6551 25.5655 50.3669 25.0755C50.0787 24.5712 49.9346 24.0236 49.9346 23.4328C49.9346 22.77 50.1075 22.1936 50.4534 21.7037C50.7992 21.1993 51.318 20.8031 52.0096 20.5149C52.7013 20.2267 53.5659 20.0826 54.6034 20.0826H57.3052C57.3052 19.5638 57.2259 19.1387 57.0674 18.8073C56.9233 18.4615 56.7 18.2021 56.3974 18.0292C56.0948 17.8563 55.6985 17.7698 55.2086 17.7698C54.661 17.7698 54.1855 17.8923 53.782 18.1373C53.393 18.3822 53.148 18.7497 53.0471 19.2396H50.2156C50.3021 18.4615 50.5615 17.7842 50.9937 17.2078C51.4404 16.6315 52.0312 16.1848 52.7661 15.8677C53.501 15.5507 54.3152 15.3922 55.2086 15.3922C56.2461 15.3922 57.1323 15.5651 57.8672 15.911C58.6165 16.2568 59.1929 16.7539 59.5963 17.4024C60.0142 18.0508 60.2232 18.8433 60.2232 19.78V26.4156H57.7591L57.4349 24.7513C57.2764 25.0395 57.0891 25.2989 56.8729 25.5295C56.6568 25.76 56.4046 25.9617 56.1164 26.1347C55.8282 26.3076 55.504 26.4373 55.1437 26.5237C54.7835 26.6246 54.3872 26.675 53.9549 26.675ZM54.6466 24.4271C55.0357 24.4271 55.3743 24.3623 55.6625 24.2326C55.9651 24.0885 56.2173 23.9012 56.419 23.6706C56.6351 23.44 56.8009 23.1735 56.9161 22.8709C57.0458 22.5538 57.1323 22.2224 57.1755 21.8766H54.9276C54.4953 21.8766 54.1351 21.9342 53.8469 22.0495C53.5587 22.1504 53.3497 22.3017 53.22 22.5034C53.0904 22.6907 53.0255 22.9141 53.0255 23.1735C53.0255 23.4472 53.0904 23.6778 53.22 23.8651C53.3497 24.0525 53.5371 24.1966 53.782 24.2974C54.027 24.3839 54.3152 24.4271 54.6466 24.4271ZM65.4184 26.4156L61.4846 15.6516H64.5538L67.2124 23.6706L69.871 15.6516H72.8971L68.9632 26.4156H65.4184ZM79.3843 26.675C78.2892 26.675 77.3165 26.4445 76.4663 25.9834C75.6306 25.5078 74.9749 24.8594 74.4994 24.038C74.0239 23.2023 73.7861 22.2368 73.7861 21.1417C73.7861 20.0177 74.0167 19.0235 74.4778 18.1589C74.9533 17.2943 75.609 16.617 76.4447 16.1271C77.2949 15.6372 78.282 15.3922 79.4059 15.3922C80.4722 15.3922 81.4089 15.63 82.2158 16.1055C83.0372 16.5666 83.6712 17.2006 84.1179 18.0076C84.579 18.8001 84.8096 19.7007 84.8096 20.7094C84.8096 20.8535 84.8023 21.0192 84.7879 21.2065C84.7879 21.3795 84.7807 21.5596 84.7663 21.7469H75.8827V19.9745H81.8484C81.8051 19.2973 81.553 18.7569 81.0918 18.3534C80.6451 17.9499 80.0832 17.7482 79.4059 17.7482C78.9016 17.7482 78.4405 17.8635 78.0226 18.094C77.6047 18.3102 77.2733 18.6488 77.0283 19.1099C76.7833 19.5566 76.6609 20.1186 76.6609 20.7959V21.4443C76.6609 22.0207 76.7761 22.525 77.0067 22.9573C77.2373 23.3752 77.5543 23.7066 77.9577 23.9516C78.3756 24.1821 78.8439 24.2974 79.3627 24.2974C79.8958 24.2974 80.3425 24.1821 80.7028 23.9516C81.063 23.7066 81.3368 23.3968 81.5241 23.0222H84.4853C84.2836 23.7138 83.945 24.3334 83.4694 24.881C82.9939 25.4286 82.4103 25.8681 81.7187 26.1995C81.027 26.5165 80.2489 26.675 79.3843 26.675ZM87.1345 26.4156V15.6516H89.7066L89.9227 17.4456C90.2542 16.826 90.7297 16.3289 91.3493 15.9542C91.9689 15.5796 92.711 15.3922 93.5756 15.3922C94.469 15.3922 95.2255 15.5868 95.8451 15.9758C96.4647 16.3505 96.9403 16.9052 97.2717 17.6401C97.6031 18.375 97.7688 19.2756 97.7688 20.342V26.4156H94.8509V20.6013C94.8509 19.7223 94.6707 19.0451 94.3105 18.5696C93.9503 18.094 93.3811 17.8563 92.6029 17.8563C92.113 17.8563 91.6735 17.9788 91.2845 18.2237C90.8954 18.4543 90.5928 18.7929 90.3766 19.2396C90.1605 19.6719 90.0524 20.1979 90.0524 20.8175V26.4156H87.1345ZM100.411 26.4156V10.8532H103.329V26.4156H100.411ZM107.493 31.1709L110.174 25.2052H109.525L105.137 15.6516H108.315L111.449 22.5466L114.259 15.6516H117.371L110.584 31.1709H107.493Z" fill="#A9B8B5"/>
</svg>
