<svg width="107" height="30" viewBox="0 0 107 30" fill="none" xmlns="http://www.w3.org/2000/svg">
<path d="M40.1019 21.1033V10.2616H36.3596V8.26202H46.3208V10.2616H42.5784V21.1033H40.1019ZM50.8122 21.3235C49.8827 21.3235 49.0572 21.1278 48.3357 20.7364C47.6263 20.3329 47.0699 19.7764 46.6663 19.0671C46.2749 18.3577 46.0793 17.5383 46.0793 16.6089C46.0793 15.6427 46.2749 14.7927 46.6663 14.059C47.0577 13.3252 47.608 12.7504 48.3173 12.3345C49.0389 11.9187 49.8705 11.7108 50.8122 11.7108C51.7294 11.7108 52.5305 11.9126 53.2154 12.3162C53.9002 12.7076 54.4322 13.2457 54.8114 13.9305C55.2027 14.6032 55.3984 15.3737 55.3984 16.242C55.3984 16.3643 55.3984 16.5049 55.3984 16.6639C55.3984 16.8107 55.3862 16.9635 55.3617 17.1225H47.8404V15.5999H52.9035C52.8668 15.0251 52.6528 14.5665 52.2614 14.2241C51.8823 13.8816 51.4054 13.7104 50.8306 13.7104C50.4025 13.7104 50.0112 13.8082 49.6565 14.0039C49.3018 14.1874 49.0205 14.4748 48.8126 14.8661C48.617 15.2452 48.5191 15.7283 48.5191 16.3154V16.8474C48.5191 17.3488 48.6108 17.7829 48.7943 18.1498C48.99 18.5167 49.259 18.8041 49.6015 19.012C49.9561 19.2077 50.3536 19.3055 50.7939 19.3055C51.2464 19.3055 51.6194 19.2077 51.9129 19.012C52.2186 18.8164 52.451 18.5595 52.61 18.2416H55.1416C54.9703 18.8164 54.6768 19.3361 54.261 19.8009C53.8574 20.2656 53.3621 20.6386 52.7751 20.9199C52.2003 21.1889 51.546 21.3235 50.8122 21.3235ZM61.8844 21.3235C60.9549 21.3235 60.1294 21.1217 59.4079 20.7181C58.6863 20.3023 58.1237 19.7336 57.7201 19.012C57.3166 18.2905 57.1148 17.465 57.1148 16.5355C57.1148 15.5816 57.3166 14.7438 57.7201 14.0223C58.1237 13.3007 58.6863 12.7381 59.4079 12.3345C60.1294 11.9187 60.9549 11.7108 61.8844 11.7108C63.0707 11.7108 64.0613 12.0227 64.8562 12.6464C65.6634 13.2579 66.1771 14.1018 66.3972 15.178H63.7739C63.6638 14.7499 63.4376 14.4197 63.0952 14.1874C62.7527 13.9428 62.343 13.8205 61.8661 13.8205C61.438 13.8205 61.0528 13.9305 60.7103 14.1507C60.3801 14.3586 60.1172 14.6643 59.9215 15.0679C59.7258 15.4715 59.628 15.9546 59.628 16.5171C59.628 16.933 59.683 17.306 59.7931 17.6362C59.9154 17.9664 60.0744 18.2538 60.2701 18.4984C60.4657 18.7307 60.6981 18.9081 60.9672 19.0304C61.2484 19.1527 61.5481 19.2138 61.8661 19.2138C62.184 19.2138 62.4714 19.1649 62.7283 19.0671C62.9851 18.957 63.2052 18.798 63.3887 18.5901C63.5721 18.3822 63.7005 18.1376 63.7739 17.8563H66.3972C66.1771 18.9081 65.6634 19.7519 64.8562 20.3879C64.0491 21.0116 63.0585 21.3235 61.8844 21.3235ZM68.5334 21.1033V7.89512H71.0099V13.2885C71.3034 12.8115 71.707 12.4324 72.2207 12.1511C72.7343 11.8576 73.3275 11.7108 74.0001 11.7108C74.7583 11.7108 75.4004 11.8698 75.9263 12.1878C76.4522 12.5058 76.8496 12.9766 77.1187 13.6003C77.4 14.2241 77.5406 14.9884 77.5406 15.8934V21.1033H75.0824V16.1136C75.0824 15.3675 74.9296 14.7927 74.6238 14.3892C74.3181 13.9856 73.835 13.7838 73.1746 13.7838C72.771 13.7838 72.398 13.8877 72.0556 14.0956C71.7253 14.2913 71.4685 14.5787 71.2851 14.9578C71.1016 15.3247 71.0099 15.7711 71.0099 16.297V21.1033H68.5334ZM79.8376 21.1033V7.89512H82.3141V21.1033H79.8376ZM84.7654 21.1033V11.931H87.242V21.1033H84.7654ZM86.0129 10.6285C85.5604 10.6285 85.1935 10.5001 84.9122 10.2432C84.6309 9.97419 84.4903 9.63787 84.4903 9.23429C84.4903 8.83071 84.6309 8.5005 84.9122 8.24367C85.1935 7.97462 85.5604 7.84009 86.0129 7.84009C86.4654 7.84009 86.8323 7.97462 87.1136 8.24367C87.4071 8.5005 87.5538 8.83071 87.5538 9.23429C87.5538 9.63787 87.4071 9.97419 87.1136 10.2432C86.8323 10.5001 86.4654 10.6285 86.0129 10.6285ZM90.1301 21.1033V11.0321C90.1301 10.2616 90.2585 9.6501 90.5154 9.1976C90.7722 8.7451 91.1391 8.41489 91.6161 8.20698C92.1052 7.99908 92.6739 7.89512 93.3221 7.89512H94.4045V10.0048H93.689C93.2977 10.0048 93.0164 10.0843 92.8452 10.2432C92.6862 10.39 92.6067 10.6529 92.6067 11.0321V21.1033H90.1301ZM88.8827 13.9856V11.931H94.5696V13.9856H88.8827ZM97.6361 25.1392L99.8925 20.076H99.3422L95.6366 11.931H98.3149L100.975 17.8196L103.36 11.931H106.001L100.259 25.1392H97.6361Z" fill="#A9B8B5"/>
<path d="M16.2073 4.30324C16.2073 2.86781 17.9529 2.16035 18.9523 3.19078L28.1604 12.6855C28.7669 13.3108 29.106 14.1477 29.106 15.0188V26.0088C29.106 27.4443 27.3604 28.1517 26.361 27.1213L17.1529 17.6266C16.5464 17.0013 16.2073 16.1644 16.2073 15.2933V4.30324Z" fill="#A9B8B5"/>
<path d="M8.21313 3.99123C8.21313 2.5558 9.9588 1.84834 10.9581 2.87877L20.0304 12.2334C20.724 12.9486 21.1119 13.9057 21.1119 14.9019V25.6968C21.1119 27.1323 19.3662 27.8397 18.3669 26.8093L9.15872 17.3146C8.55228 16.6892 8.21313 15.8524 8.21313 14.9813V3.99123Z" fill="#A9B8B5"/>
<path d="M0.487305 4.30324C0.487305 2.86781 2.23297 2.16035 3.23231 3.19078L12.4405 12.6855C13.0469 13.3108 13.3861 14.1477 13.3861 15.0188V26.0088C13.3861 27.4443 11.6404 28.1517 10.6411 27.1213L1.43289 17.6266C0.826453 17.0013 0.487305 16.1644 0.487305 15.2933V4.30324Z" fill="#A9B8B5"/>
</svg>
