<svg width="153" height="30" viewBox="0 0 153 30" fill="none" xmlns="http://www.w3.org/2000/svg">
<path d="M38.8876 23.4999V4.54214H43.3291L49.1248 16.4856H49.1519L54.8934 4.54214H59.3349V23.4999H55.6788V10.6357H55.6517L50.6414 20.7917H47.5811L42.5708 10.6357H42.5437V23.4999H38.8876ZM67.2392 23.8249C66.1198 23.8249 65.19 23.6444 64.4497 23.2833C63.7095 22.9222 63.1588 22.4347 62.7977 21.8208C62.4546 21.2069 62.2831 20.5299 62.2831 19.7896C62.2831 18.9591 62.4908 18.2369 62.906 17.623C63.3393 16.9911 63.9893 16.4946 64.856 16.1335C65.7226 15.7724 66.8149 15.5918 68.133 15.5918H71.5183C71.5183 14.9418 71.419 14.4092 71.2204 13.994C71.0398 13.5606 70.7509 13.2356 70.3537 13.019C69.9746 12.8023 69.4871 12.694 68.8913 12.694C68.1871 12.694 67.5823 12.8565 67.0767 13.1815C66.5893 13.4884 66.2913 13.9578 66.183 14.5898H62.6081C62.7164 13.5967 63.0505 12.7391 63.6102 12.0169C64.1699 11.2947 64.9101 10.735 65.8309 10.3378C66.7517 9.9406 67.7719 9.742 68.8913 9.742C70.1912 9.742 71.3016 9.95866 72.2224 10.392C73.1613 10.8072 73.8835 11.4301 74.389 12.2607C74.9126 13.0732 75.1744 14.0662 75.1744 15.2398V23.4999H72.087L71.7079 21.4146H71.6808C71.4641 21.7757 71.2113 22.1097 70.9225 22.4166C70.6516 22.7055 70.3266 22.9583 69.9475 23.1749C69.5864 23.3736 69.1802 23.527 68.7288 23.6354C68.2774 23.7617 67.7809 23.8249 67.2392 23.8249ZM68.1871 21.0083C68.6746 21.0083 69.0989 20.9271 69.46 20.7646C69.8392 20.584 70.1551 20.3493 70.4079 20.0605C70.6787 19.7716 70.8954 19.4376 71.0579 19.0584C71.2204 18.6792 71.3197 18.273 71.3558 17.8397H68.5392C67.9975 17.8397 67.5462 17.9119 67.1851 18.0563C66.824 18.1827 66.5622 18.3723 66.3997 18.6251C66.2372 18.8598 66.1559 19.1396 66.1559 19.4646C66.1559 19.7896 66.2372 20.0695 66.3997 20.3042C66.5622 20.5389 66.7969 20.7195 67.1038 20.8458C67.4108 20.9542 67.7719 21.0083 68.1871 21.0083ZM78.2136 23.4999V10.067H81.4364L81.7885 12.6669C82.1496 12.0169 82.5649 11.4753 83.0343 11.042C83.5037 10.6086 84.0454 10.2836 84.6592 10.067C85.2912 9.85033 85.9773 9.742 86.7175 9.742V13.6148H85.7155C85.1377 13.6148 84.6141 13.678 84.1447 13.8044C83.6752 13.9308 83.269 14.1384 82.926 14.4273C82.5829 14.7162 82.3211 15.1134 82.1406 15.6189C81.96 16.1064 81.8697 16.7203 81.8697 17.4605V23.4999H78.2136ZM97.8641 23.4999L91.9872 16.1064L97.16 10.067H101.493L94.8038 17.623L94.7767 14.7252L102.414 23.4999H97.8641ZM88.8727 23.4999V4.10882H92.5288V23.4999H88.8727ZM109.815 23.8249C108.425 23.8249 107.197 23.536 106.132 22.9583C105.085 22.3805 104.263 21.568 103.667 20.5209C103.089 19.4737 102.801 18.273 102.801 16.9189C102.801 15.5106 103.089 14.2738 103.667 13.2086C104.245 12.1253 105.057 11.2767 106.105 10.6628C107.17 10.0489 108.407 9.742 109.815 9.742C111.151 9.742 112.325 10.0309 113.336 10.6086C114.365 11.1864 115.168 11.9808 115.746 12.9919C116.324 13.9849 116.613 15.1134 116.613 16.3772C116.613 16.5578 116.604 16.7654 116.586 17.0001C116.586 17.2168 116.568 17.4425 116.531 17.6772H105.4V15.4293H112.902C112.848 14.5988 112.532 13.9398 111.954 13.4523C111.377 12.9468 110.664 12.694 109.815 12.694C109.201 12.694 108.623 12.8384 108.082 13.1273C107.558 13.3981 107.143 13.8134 106.836 14.3731C106.547 14.9328 106.403 15.637 106.403 16.4856V17.2709C106.403 17.9932 106.538 18.6251 106.809 19.1667C107.098 19.7084 107.504 20.1236 108.027 20.4125C108.551 20.7014 109.138 20.8458 109.788 20.8458C110.438 20.8458 110.989 20.7014 111.44 20.4125C111.891 20.1056 112.234 19.7174 112.469 19.248H116.206C115.954 20.0966 115.52 20.8729 114.906 21.5771C114.311 22.2632 113.579 22.8138 112.713 23.2291C111.846 23.6263 110.88 23.8249 109.815 23.8249ZM125.169 23.4999C124.212 23.4999 123.373 23.3555 122.65 23.0666C121.946 22.7597 121.396 22.2632 120.998 21.5771C120.601 20.8729 120.403 19.916 120.403 18.7063V13.1002H118.1V10.067H120.403L120.809 6.41084H124.059V10.067H127.634V13.1002H124.059V18.7605C124.059 19.3744 124.194 19.8077 124.465 20.0605C124.736 20.2952 125.196 20.4125 125.846 20.4125H127.552V23.4999H125.169ZM130.316 23.4999V4.10882H133.973V23.4999H130.316ZM139.06 29.3498L142.364 21.9833H141.551L136.053 10.067H140.035L143.962 18.6792H143.989L147.482 10.067H151.382L142.932 29.3498H139.06Z" fill="#A9B8B5"/>
<rect x="0.117676" y="17.8999" width="6.92744" height="10.7689" rx="3.46372" fill="#A9B8B5"/>
<rect x="0.117676" y="1.41681" width="6.92744" height="6.92744" rx="3.46372" fill="#A9B8B5"/>
<rect x="10.1968" y="9.43365" width="6.92744" height="19.2353" rx="3.46372" fill="#A9B8B5"/>
<rect x="20.2761" y="1.41675" width="6.92744" height="27.252" rx="3.46372" fill="#A9B8B5"/>
</svg>
